<svg width="86.064209" height="22.365234" viewBox="0 0 86.0642 22.3652" fill="none" xmlns="http://www.w3.org/2000/svg" xmlns:xlink="http://www.w3.org/1999/xlink">
	<desc>
			Created with Pixso.
	</desc>
	<defs/>
	<path id="UpDate" d="M10.56 10.89L10.56 0L14.77 0L14.77 11.26C14.77 15.16 11.8 17.67 7.39 17.67C2.95 17.67 0 15.16 0 11.26L0 0L4.21 0L4.21 10.89C4.21 12.7 5.5 14 7.39 14C9.27 14 10.56 12.7 10.56 10.89ZM47.84 8.71C47.84 14.17 44.54 17.45 39.22 17.45L32.76 17.45L32.76 0L39.21 0C44.54 0 47.84 3.27 47.84 8.71ZM69.37 4.36L71.74 4.36L71.74 7.42L69.37 7.42L69.37 13.33C69.37 14.11 69.76 14.38 70.43 14.38C70.75 14.38 71.16 14.3 71.34 14.26L71.97 17.26C71.57 17.38 70.85 17.58 69.84 17.64C66.9 17.77 65.18 16.44 65.2 13.79L65.2 7.42L63.47 7.42L63.47 4.36L65.2 4.36L65.2 1.23L69.37 1.23L69.37 4.36ZM36.98 3.59L36.98 13.85L39.06 13.85C42 13.85 43.61 12.49 43.61 8.71C43.61 4.96 42 3.59 39 3.59L36.98 3.59ZM21.58 22.36L17.41 22.36L17.41 4.36L21.53 4.36L21.53 6.6L21.66 6.6C22.16 5.4 23.3 4.19 25.37 4.19C28.11 4.19 30.58 6.29 30.58 10.91C30.58 15.37 28.24 17.64 25.35 17.64C23.37 17.64 22.19 16.54 21.66 15.33L21.58 15.33L21.58 22.36ZM57.78 15.63C57.07 16.96 55.81 17.67 53.98 17.67C51.48 17.67 49.68 16.41 49.68 13.82C49.68 10.92 51.89 9.94 54.54 9.72C56.77 9.52 57.65 9.35 57.65 8.55L57.65 8.51C57.65 7.63 57 7.14 55.98 7.14C54.88 7.14 54.18 7.65 54.01 8.49L50.16 8.35C50.49 5.96 52.49 4.19 56.01 4.19C59.34 4.19 61.81 5.78 61.81 8.55L61.81 17.45L57.88 17.45L57.88 15.63L57.78 15.63ZM86.02 13.46C85.54 16.04 83.28 17.7 79.85 17.7C75.73 17.7 73.23 15.15 73.23 10.96C73.23 6.9 75.76 4.19 79.72 4.19C83.43 4.19 86.06 6.56 86.06 10.87L86.06 11.91L77.33 11.91L77.33 12.02C77.33 13.62 78.32 14.69 79.92 14.69C81.01 14.69 81.87 14.22 82.19 13.35L86.02 13.46ZM79.81 7.2C78.42 7.2 77.39 8.19 77.33 9.49L82.18 9.49C82.16 8.15 81.18 7.2 79.81 7.2ZM23.91 7.44C22.38 7.44 21.49 8.77 21.49 10.91C21.49 13.03 22.38 14.39 23.91 14.39C25.45 14.39 26.3 13.02 26.3 10.91C26.3 8.8 25.45 7.44 23.91 7.44ZM53.62 13.61C53.62 14.49 54.31 14.94 55.27 14.94C56.6 14.94 57.67 14.08 57.67 12.8L57.67 11.55C57.2 11.8 56.25 11.97 55.47 12.08C54.29 12.26 53.62 12.77 53.62 13.61Z" fill="#19191C" fill-opacity="1.000000" fill-rule="evenodd"/>
</svg>
